<svg width="640" height="470">
  <polyline points="75,200 565,200 565,270 75,270 75,200" style="fill:none;stroke:black;stroke-width:2" />
  <line x1="145" y1="200" x2="145" y2="270" style="stroke:rgb(0,0,0);stroke-width:2" />
  <line x1="215" y1="200" x2="215" y2="270" style="stroke:rgb(0,0,0);stroke-width:2" />
  <line x1="285" y1="200" x2="285" y2="270" style="stroke:rgb(0,0,0);stroke-width:2" />
  <line x1="355" y1="200" x2="355" y2="270" style="stroke:rgb(0,0,0);stroke-width:2" />
  <line x1="425" y1="200" x2="425" y2="270" style="stroke:rgb(0,0,0);stroke-width:2" />
  <line x1="495" y1="200" x2="495" y2="270" style="stroke:rgb(0,0,0);stroke-width:2" />
  <path d="M 110 270 c 0  140 140  140 140 0" stroke="black" stroke-width="2" fill="none" />
  <path d="M 180 270 c 0   70  70   70  70 0" stroke="black" stroke-width="2" fill="none" />
  <path d="M 250 200 c 0 -140 210 -140 210 0" stroke="black" stroke-width="2" fill="none" />
  <path d="M 320 200 c 0  -70 140  -70 140 0" stroke="black" stroke-width="2" fill="none" />
  <path d="M 390 270 c 0  140 140  140 140 0" stroke="black" stroke-width="2" fill="none" />
  <path d="M 460 270 c 0   70  70   70  70 0" stroke="black" stroke-width="2" fill="none" />
  <circle id="pointA" cx="110" cy="235" r="15" stroke="black" stroke-width="2" fill="none"/>
  <circle id="pointA" cx="180" cy="235" r="15" stroke="black" stroke-width="2" fill="none"/>
  <circle id="pointA" cx="250" cy="235" r="15" />
  <circle id="pointA" cx="320" cy="235" r="15" stroke="black" stroke-width="2" fill="none"/>
  <circle id="pointA" cx="390" cy="235" r="15" stroke="black" stroke-width="2" fill="none"/>
  <circle id="pointA" cx="460" cy="235" r="15" />
  <circle id="pointA" cx="530" cy="235" r="15" />
  <text x="105" y="240" fill="black">2</text>
  <text x="175" y="240" fill="black">1</text>
  <text x="315" y="240" fill="black">0</text>
  <text x="385" y="240" fill="black">3</text>
  Sorry, no SVG! :(
</svg>
